<svg width="1080" height="644" viewBox="0 0 1080 644" fill="none" xmlns="http://www.w3.org/2000/svg">
    <rect width="1080" height="644" fill="white" />
    <g clip-path="url(#clip0_1017_2)">
        <path
            d="M299.393 175.235C299.393 159.809 311.898 147.305 327.323 147.305H764.165C779.591 147.305 792.095 159.809 792.095 175.235V454.336C792.095 469.762 779.591 482.266 764.165 482.266H327.323C311.898 482.266 299.393 469.762 299.393 454.336V175.235Z"
            fill="white" stroke="#E1E4E5" stroke-width="4" />
        <path
            d="M742.32 399.661C742.32 376.666 723.678 358.024 700.683 358.024C677.687 358.024 659.046 376.666 659.046 399.661C659.046 422.657 677.687 441.298 700.683 441.298C723.678 441.298 742.32 422.657 742.32 399.661Z"
            fill="#8C34B1" />
        <path fill-rule="evenodd" clip-rule="evenodd"
            d="M719.607 417.128V419.912C719.607 421.449 718.375 422.696 716.859 422.696H683.889C682.372 422.696 681.141 421.449 681.141 419.912V417.084C681.141 408.658 690.642 403.185 700.374 403.185C710.105 403.185 719.607 408.661 719.607 417.084M707.27 378.726C711.079 382.536 711.079 388.713 707.27 392.523C703.46 396.333 697.283 396.333 693.473 392.523C689.663 388.713 689.663 382.536 693.473 378.726C697.283 374.916 703.46 374.916 707.27 378.726Z"
            fill="white" />
        <path
            d="M678.663 205.088H678.663C666.944 205.088 657.444 214.588 657.444 226.306V226.307C657.444 238.026 666.944 247.526 678.663 247.526H678.663C690.382 247.526 699.882 238.026 699.882 226.307V226.306C699.882 214.588 690.382 205.088 678.663 205.088Z"
            fill="#8C34B1" />
        <path fill-rule="evenodd" clip-rule="evenodd"
            d="M688.307 235.208V236.627C688.307 237.41 687.68 238.046 686.906 238.046H670.104C669.332 238.046 668.704 237.41 668.704 236.627V235.185C668.704 230.892 673.546 228.103 678.505 228.103C683.465 228.103 688.307 230.894 688.307 235.185M682.019 215.638C682.499 216.096 682.882 216.644 683.146 217.252C683.411 217.86 683.551 218.515 683.559 219.177C683.566 219.84 683.441 220.498 683.191 221.112C682.941 221.725 682.571 222.283 682.102 222.752C681.633 223.22 681.076 223.59 680.462 223.84C679.848 224.09 679.19 224.215 678.527 224.207C677.865 224.199 677.21 224.059 676.602 223.794C675.995 223.53 675.446 223.146 674.988 222.667C674.092 221.727 673.599 220.474 673.615 219.176C673.63 217.878 674.153 216.637 675.071 215.719C675.99 214.801 677.231 214.278 678.529 214.263C679.827 214.248 681.08 214.742 682.019 215.638Z"
            fill="white" />
        <path
            d="M597.792 185.87H597.791C586.072 185.87 576.572 195.37 576.572 207.089V207.09C576.572 218.809 586.072 228.309 597.791 228.309H597.792C609.511 228.309 619.01 218.809 619.01 207.09V207.089C619.01 195.37 609.511 185.87 597.792 185.87Z"
            fill="#8C34B1" />
        <path fill-rule="evenodd" clip-rule="evenodd"
            d="M607.434 215.991V217.41C607.434 218.193 606.807 218.829 606.034 218.829H589.232C588.459 218.829 587.832 218.193 587.832 217.41V215.968C587.832 211.675 592.673 208.886 597.633 208.886C602.593 208.886 607.434 211.676 607.434 215.968M601.147 196.421C601.609 196.882 601.975 197.43 602.225 198.034C602.475 198.637 602.604 199.283 602.604 199.936C602.604 200.589 602.475 201.236 602.225 201.839C601.975 202.442 601.609 202.99 601.147 203.452C600.452 204.147 599.566 204.621 598.601 204.813C597.637 205.005 596.637 204.906 595.728 204.53C594.82 204.154 594.043 203.516 593.497 202.699C592.95 201.881 592.659 200.92 592.659 199.936C592.659 198.953 592.95 197.991 593.497 197.174C594.043 196.356 594.82 195.719 595.728 195.342C596.637 194.966 597.637 194.868 598.601 195.059C599.566 195.251 600.452 195.725 601.147 196.421Z"
            fill="white" />
        <path
            d="M486.492 310.782H386.402C368.05 310.782 353.172 325.66 353.172 344.012V344.012C353.172 362.364 368.05 377.242 386.402 377.242H486.492C504.844 377.242 519.721 362.364 519.721 344.012V344.012C519.721 325.66 504.844 310.782 486.492 310.782Z"
            fill="white" stroke="#E1E4E5" stroke-width="4" />
        <path
            d="M413.464 343.916C413.464 329.216 401.548 317.3 386.849 317.3C372.15 317.3 360.233 329.216 360.233 343.916C360.233 358.615 372.15 370.531 386.849 370.531C401.548 370.531 413.464 358.615 413.464 343.916Z"
            fill="#8C34B1" />
        <path fill-rule="evenodd" clip-rule="evenodd"
            d="M398.944 355.081V356.861C398.944 357.843 398.157 358.64 397.188 358.64H376.112C375.143 358.64 374.356 357.843 374.356 356.861V355.053C374.356 349.667 380.43 346.168 386.65 346.168C392.871 346.168 398.944 349.669 398.944 355.053M391.06 330.533C392.23 331.703 392.886 333.289 392.886 334.943C392.886 336.597 392.229 338.184 391.059 339.353C389.89 340.523 388.303 341.179 386.649 341.179C384.995 341.179 383.409 340.522 382.239 339.352C381.078 338.181 380.428 336.597 380.431 334.948C380.435 333.298 381.091 331.717 382.258 330.551C383.424 329.384 385.005 328.728 386.655 328.724C388.304 328.721 389.888 329.371 391.059 330.533H391.06Z"
            fill="white" />
        <path
            d="M491.295 331.601H421.634C420.528 331.601 419.632 332.497 419.632 333.603C419.632 334.708 420.528 335.605 421.634 335.605H491.295C492.401 335.605 493.297 334.708 493.297 333.603C493.297 332.497 492.401 331.601 491.295 331.601Z"
            fill="#E1E4E5" />
        <path
            d="M490.895 341.209H422.034C420.707 341.209 419.632 342.284 419.632 343.611C419.632 344.938 420.707 346.013 422.034 346.013H490.895C492.222 346.013 493.297 344.938 493.297 343.611C493.297 342.284 492.222 341.209 490.895 341.209Z"
            fill="#E1E4E5" />
        <path
            d="M491.295 351.619H421.634C420.528 351.619 419.632 352.515 419.632 353.621C419.632 354.726 420.528 355.622 421.634 355.622H491.295C492.401 355.622 493.297 354.726 493.297 353.621C493.297 352.515 492.401 351.619 491.295 351.619Z"
            fill="#E1E4E5" />
        <path
            d="M709.09 261.938H609C590.648 261.938 575.771 276.816 575.771 295.168V295.169C575.771 313.521 590.648 328.398 609 328.398H709.09C727.443 328.398 742.32 313.521 742.32 295.169V295.168C742.32 276.816 727.443 261.938 709.09 261.938Z"
            fill="white" stroke="#E1E4E5" stroke-width="4" />
        <path
            d="M636.064 295.072C636.064 280.373 624.148 268.457 609.448 268.457C594.749 268.457 582.833 280.373 582.833 295.072C582.833 309.771 594.749 321.687 609.448 321.687C624.148 321.687 636.064 309.771 636.064 295.072Z"
            fill="#8C34B1" />
        <path fill-rule="evenodd" clip-rule="evenodd"
            d="M621.543 306.237V308.017C621.543 308.999 620.756 309.797 619.786 309.797H598.711C597.742 309.797 596.955 308.999 596.955 308.017V306.209C596.955 300.824 603.028 297.324 609.249 297.324C615.47 297.324 621.543 300.825 621.543 306.209M613.659 281.69C614.828 282.86 615.485 284.446 615.485 286.099C615.485 287.753 614.828 289.339 613.659 290.509C613.08 291.088 612.392 291.547 611.636 291.861C610.879 292.174 610.068 292.335 609.249 292.335C608.43 292.335 607.619 292.174 606.863 291.861C606.106 291.547 605.418 291.088 604.839 290.509C603.67 289.339 603.013 287.753 603.013 286.099C603.013 284.446 603.67 282.86 604.839 281.69C605.418 281.111 606.106 280.652 606.863 280.338C607.619 280.025 608.43 279.864 609.249 279.864C610.068 279.864 610.879 280.025 611.636 280.338C612.392 280.652 613.08 281.111 613.659 281.69Z"
            fill="white" />
        <path
            d="M713.894 282.757H644.233C643.127 282.757 642.23 283.654 642.23 284.759C642.23 285.865 643.127 286.761 644.233 286.761H713.894C714.999 286.761 715.896 285.865 715.896 284.759C715.896 283.654 714.999 282.757 713.894 282.757Z"
            fill="#E1E4E5" />
        <path
            d="M713.494 292.366H644.632C643.306 292.366 642.23 293.441 642.23 294.768C642.23 296.095 643.306 297.17 644.632 297.17H713.494C714.82 297.17 715.896 296.095 715.896 294.768C715.896 293.441 714.82 292.366 713.494 292.366Z"
            fill="#E1E4E5" />
        <path
            d="M713.894 302.775H644.233C643.127 302.775 642.23 303.671 642.23 304.777C642.23 305.882 643.127 306.779 644.233 306.779H713.894C714.999 306.779 715.896 305.882 715.896 304.777C715.896 303.671 714.999 302.775 713.894 302.775Z"
            fill="#E1E4E5" />
        <path
            d="M527.329 225.907H427.239C408.887 225.907 394.009 240.784 394.009 259.136V259.137C394.009 277.489 408.887 292.366 427.239 292.366H527.329C545.681 292.366 560.558 277.489 560.558 259.137V259.136C560.558 240.784 545.681 225.907 527.329 225.907Z"
            fill="white" stroke="#E1E4E5" stroke-width="4" />
        <path
            d="M454.301 259.04C454.301 244.341 442.385 232.425 427.686 232.425C412.986 232.425 401.07 244.341 401.07 259.04C401.07 273.739 412.986 285.655 427.686 285.655C442.385 285.655 454.301 273.739 454.301 259.04Z"
            fill="#8C34B1" />
        <path fill-rule="evenodd" clip-rule="evenodd"
            d="M439.78 270.205V271.985C439.78 272.967 438.994 273.765 438.024 273.765H416.949C415.98 273.765 415.192 272.967 415.192 271.985V270.176C415.192 264.791 421.266 261.293 427.487 261.293C433.708 261.293 439.78 264.793 439.78 270.176M431.897 245.658C432.476 246.237 432.935 246.924 433.249 247.681C433.562 248.438 433.723 249.249 433.723 250.068C433.723 250.887 433.562 251.698 433.248 252.454C432.935 253.211 432.475 253.899 431.896 254.478C431.317 255.057 430.629 255.516 429.873 255.829C429.116 256.143 428.305 256.304 427.486 256.304C426.667 256.304 425.856 256.142 425.099 255.829C424.343 255.516 423.655 255.056 423.076 254.477C421.906 253.307 421.25 251.721 421.25 250.067C421.25 248.413 421.907 246.826 423.077 245.657C424.246 244.487 425.833 243.83 427.487 243.831C429.141 243.831 430.727 244.488 431.897 245.658Z"
            fill="white" />
        <path
            d="M532.132 246.725H462.47C461.365 246.725 460.468 247.621 460.468 248.727C460.468 249.832 461.365 250.728 462.47 250.728H532.132C533.237 250.728 534.134 249.832 534.134 248.727C534.134 247.621 533.237 246.725 532.132 246.725Z"
            fill="#E1E4E5" />
        <path
            d="M531.732 256.333H462.87C461.544 256.333 460.468 257.409 460.468 258.735C460.468 260.062 461.544 261.137 462.87 261.137H531.732C533.058 261.137 534.134 260.062 534.134 258.735C534.134 257.409 533.058 256.333 531.732 256.333Z"
            fill="#E1E4E5" />
        <path
            d="M532.132 266.743H462.47C461.365 266.743 460.468 267.639 460.468 268.745C460.468 269.85 461.365 270.747 462.47 270.747H532.132C533.237 270.747 534.134 269.85 534.134 268.745C534.134 267.639 533.237 266.743 532.132 266.743Z"
            fill="#E1E4E5" />
        <path
            d="M338.891 175.061C338.891 178.093 336.599 180.397 333.955 180.397C331.312 180.397 329.02 178.093 329.02 175.061C329.02 172.029 331.312 169.725 333.955 169.725C336.599 169.725 338.891 172.029 338.891 175.061ZM359.709 175.061C359.709 177.93 357.221 180.397 353.974 180.397C350.725 180.397 348.237 177.93 348.237 175.061C348.237 172.192 350.725 169.725 353.974 169.725C357.221 169.725 359.709 172.192 359.709 175.061Z"
            fill="white" stroke="#E1E4E5" stroke-width="4" />
        <path
            d="M373.591 180.397C376.538 180.397 378.927 178.008 378.927 175.061C378.927 172.114 376.538 169.725 373.591 169.725C370.644 169.725 368.255 172.114 368.255 175.061C368.255 178.008 370.644 180.397 373.591 180.397Z"
            fill="white" stroke="#E1E4E5" stroke-width="4" />
        <path opacity="0.76" fill-rule="evenodd" clip-rule="evenodd"
            d="M426.038 397.259L468.476 463.719H383.6L426.038 397.259Z"
            fill="url(#paint0_linear_1017_2)" />
        <path opacity="0.76" fill-rule="evenodd" clip-rule="evenodd"
            d="M562.275 306.263L581.559 336.261H542.99L562.275 306.263Z"
            fill="url(#paint1_linear_1017_2)" />
        <path
            d="M272.788 439.201C268.018 443.369 259.814 441.789 259.814 441.789C259.814 441.789 259.348 433.451 264.121 429.286C268.891 425.119 277.091 426.696 277.091 426.696C277.091 426.696 277.557 435.034 272.788 439.201Z"
            fill="url(#paint2_linear_1017_2)" />
        <path
            d="M761.407 166.049C760.989 167.607 761.914 169.208 763.472 169.626C765.031 170.044 766.632 169.119 767.05 167.561C767.467 166.002 766.542 164.401 764.984 163.983C763.426 163.566 761.824 164.49 761.407 166.049Z"
            fill="#E1E4E5" />
        <path
            d="M749.482 188.906C749.064 190.465 749.989 192.066 751.547 192.484C753.105 192.901 754.707 191.976 755.124 190.418C755.542 188.86 754.617 187.258 753.059 186.841C751.501 186.423 749.899 187.348 749.482 188.906Z"
            fill="#E1E4E5" />
        <path
            d="M817.061 148.656C816.644 150.215 817.568 151.816 819.127 152.234C820.685 152.651 822.286 151.726 822.704 150.168C823.121 148.61 822.197 147.008 820.639 146.591C819.08 146.173 817.479 147.098 817.061 148.656Z"
            fill="#E1E4E5" />
        <path
            d="M804.472 337.458C804.198 338.482 804.805 339.535 805.829 339.809C806.853 340.083 807.905 339.476 808.18 338.452C808.454 337.428 807.846 336.376 806.823 336.101C805.799 335.827 804.747 336.435 804.472 337.458Z"
            fill="#E1E4E5" />
        <path
            d="M776.347 490.026C775.929 491.584 776.854 493.186 778.412 493.604C779.97 494.021 781.572 493.096 781.99 491.538C782.407 489.98 781.482 488.378 779.924 487.961C778.366 487.543 776.764 488.468 776.347 490.026Z"
            fill="#E1E4E5" />
        <path
            d="M647.272 456.864L640.26 463.876C640.005 464.131 640.005 464.545 640.26 464.8L640.261 464.8C640.516 465.055 640.93 465.055 641.185 464.8L648.197 457.789C648.452 457.533 648.452 457.12 648.197 456.865L648.196 456.864C647.941 456.609 647.527 456.609 647.272 456.864Z"
            fill="#E1E4E5" />
        <path
            d="M646.585 461.884L644.563 463.907C644.308 464.162 644.308 464.576 644.563 464.831L644.564 464.831C644.819 465.086 645.233 465.086 645.488 464.831L647.51 462.809C647.765 462.554 647.765 462.14 647.51 461.885L647.509 461.884C647.254 461.629 646.841 461.629 646.585 461.884Z"
            fill="#E1E4E5" />
        <path
            d="M748.64 462.892C748.573 462.795 753.463 459.311 759.567 455.125C765.669 450.931 770.677 447.612 770.744 447.709C770.811 447.806 765.919 451.282 759.817 455.476C753.707 459.672 748.707 462.989 748.64 462.892ZM769.444 426.085H769.514C769.929 431.719 774.301 431.806 774.301 431.806C774.301 431.806 769.48 431.896 769.48 438.406C769.48 431.896 764.658 431.806 764.658 431.806C764.658 431.806 769.029 431.719 769.444 426.085Z"
            fill="#E1E4E5" />
        <path
            d="M544.434 398.749L527.31 461.349L533.419 454.318C531.16 455.521 528.54 456.444 525.639 457.099C522.738 457.754 519.584 458.128 516.282 458.302C512.981 458.475 509.544 458.449 506.016 458.302C502.5 458.155 498.904 457.887 495.255 457.58H495.241C489.854 457.125 485.122 461.109 484.654 466.496C484.213 471.629 487.863 476.174 492.862 476.99C496.631 477.591 500.455 478.153 504.385 478.607C508.315 479.062 512.339 479.396 516.509 479.49C520.68 479.583 524.998 479.423 529.463 478.781C533.914 478.14 538.539 476.976 543.057 475.025C545.945 473.782 548.003 471.402 548.939 468.635L549.153 467.98L569.699 406.409C572.012 399.484 568.269 392.012 561.344 389.699C554.42 387.386 546.947 391.13 544.635 398.054C544.568 398.281 544.488 398.535 544.434 398.749Z"
            fill="#F8AE9D" />
        <path
            d="M582.491 484.744C582.718 486.508 583.494 487.858 584.229 487.751C584.951 487.657 585.365 486.147 585.138 484.396C584.911 482.631 584.135 481.281 583.4 481.388C582.665 481.482 582.264 482.992 582.491 484.744Z"
            fill="#B55E63" />
        <path fill-rule="evenodd" clip-rule="evenodd"
            d="M553.123 462.843C553.123 462.813 553.115 462.785 553.102 462.759C553.088 462.733 553.068 462.711 553.044 462.694C552.818 462.536 552.595 462.372 552.377 462.204C550.829 461.063 550.552 458.421 550.096 454.063C549.944 452.614 549.773 450.976 549.528 449.14C548.552 441.822 547.83 437.448 545.624 427.686C545.458 426.951 545.282 426.214 545.104 425.475C544.461 422.795 543.81 420.087 543.651 417.359C543.639 417.148 543.64 416.936 543.654 416.724C543.735 415.747 543.789 414.769 543.816 413.777C543.843 412.989 543.857 412.201 543.857 411.413V410.693C543.852 409.55 543.841 408.407 543.823 407.264C543.712 399.015 543.649 394.389 549.528 390.317C551.047 389.257 552.973 388.252 555.388 387.22C557.342 386.391 559.608 385.549 562.266 384.666C563.338 384.313 564.491 383.946 565.712 383.566L568.588 382.778L598.3 374.547C598.595 374.466 598.901 374.437 599.206 374.451C600.725 374.53 602.242 374.628 603.758 374.746C604.215 374.781 604.699 374.817 605.203 374.858C607.726 375.062 610.833 375.348 614.211 375.755C615.2 375.868 616.225 376.004 617.262 376.141L617.52 376.176C620.967 376.638 623.747 377.806 625.945 379.491C629.839 382.479 631.942 387.124 632.715 392.518C633.149 395.547 633.176 398.807 632.877 402.149C632.756 403.481 632.589 404.809 632.375 406.129C632.184 407.336 631.954 408.537 631.684 409.729C630.892 413.29 630.199 416.873 629.608 420.474L629.364 421.941C629.314 422.277 629.262 422.615 629.209 422.956C629.147 423.359 629.083 423.764 629.025 424.169C627.397 435.009 626.596 445.536 626.759 452.94V452.948L626.8 454.271C626.99 459.257 627.56 464.84 628.631 471.048C628.691 471.361 628.746 471.674 628.802 471.989C628.848 472.249 628.895 472.509 628.943 472.773C628.975 472.939 628.981 473.103 628.965 473.261C632.137 476.347 633.639 480.295 630.844 483.995C629.506 485.764 626.108 486.729 623.891 486.814L570.732 488.862C562.701 489.17 554.544 485.651 554.321 477.617C554.291 476.512 554.321 475.321 554.429 474.042C554.429 474.04 554.609 473.855 554.963 473.53C554.085 473.232 553.408 472.434 553.408 471.428C553.4 470.128 553.378 468.828 553.339 467.529C553.307 466.238 553.253 464.947 553.177 463.658C553.163 463.373 553.15 463.101 553.123 462.843Z"
            fill="white" />
        <mask id="mask0_1017_2" style="mask-type:luminance" maskUnits="userSpaceOnUse" x="543"
            y="374" width="91" height="115">
            <path fill-rule="evenodd" clip-rule="evenodd"
                d="M553.123 462.843C553.123 462.813 553.115 462.785 553.102 462.759C553.088 462.733 553.068 462.711 553.044 462.694C552.818 462.536 552.595 462.372 552.377 462.204C550.829 461.063 550.552 458.421 550.096 454.063C549.944 452.614 549.773 450.976 549.528 449.14C548.552 441.822 547.83 437.448 545.624 427.686C545.458 426.951 545.282 426.214 545.104 425.475C544.461 422.795 543.81 420.087 543.651 417.359C543.639 417.148 543.64 416.936 543.654 416.724C543.735 415.747 543.789 414.769 543.816 413.777C543.843 412.989 543.857 412.201 543.857 411.413V410.693C543.852 409.55 543.841 408.407 543.823 407.264C543.712 399.015 543.649 394.389 549.528 390.317C551.047 389.257 552.973 388.252 555.388 387.22C557.342 386.391 559.608 385.549 562.266 384.666C563.338 384.313 564.491 383.946 565.712 383.566L568.588 382.778L598.3 374.547C598.595 374.466 598.901 374.437 599.206 374.451C600.725 374.53 602.242 374.628 603.758 374.746C604.215 374.781 604.699 374.817 605.203 374.858C607.726 375.062 610.833 375.348 614.211 375.755C615.2 375.868 616.225 376.004 617.262 376.141L617.52 376.176C620.967 376.638 623.747 377.806 625.945 379.491C629.839 382.479 631.942 387.124 632.715 392.518C633.149 395.547 633.176 398.807 632.877 402.149C632.756 403.481 632.589 404.809 632.375 406.129C632.184 407.336 631.954 408.537 631.684 409.729C630.892 413.29 630.199 416.873 629.608 420.474L629.364 421.941C629.314 422.277 629.262 422.615 629.209 422.956C629.147 423.359 629.083 423.764 629.025 424.169C627.397 435.009 626.596 445.536 626.759 452.94V452.948L626.8 454.271C626.99 459.257 627.56 464.84 628.631 471.048C628.691 471.361 628.746 471.674 628.802 471.989C628.848 472.249 628.895 472.509 628.943 472.773C628.975 472.939 628.981 473.103 628.965 473.261C632.137 476.347 633.639 480.295 630.844 483.995C629.506 485.764 626.108 486.729 623.891 486.814L570.732 488.862C562.701 489.17 554.544 485.651 554.321 477.617C554.291 476.512 554.321 475.321 554.429 474.042C554.429 474.04 554.609 473.855 554.963 473.53C554.085 473.232 553.408 472.434 553.408 471.428C553.4 470.128 553.378 468.828 553.339 467.529C553.307 466.238 553.253 464.947 553.177 463.658C553.163 463.373 553.15 463.101 553.123 462.843Z"
                fill="white" />
        </mask>
        <g mask="url(#mask0_1017_2)">
            <path
                d="M553.123 462.843L550.199 463.15L550.183 462.997V462.843H553.123ZM552.377 462.204L554.122 459.839L554.143 459.854L554.164 459.87L552.377 462.204ZM543.654 416.724L540.72 416.523L540.722 416.502L540.724 416.481L543.654 416.724ZM543.816 413.777L540.878 413.696V413.686L540.879 413.676L543.816 413.777ZM543.857 410.693L546.797 410.686V410.693H543.857ZM549.528 390.317L551.21 392.729L551.202 392.734L549.528 390.317ZM555.388 387.22L554.233 384.517L554.24 384.513L555.388 387.22ZM562.266 384.666L561.34 381.876L561.346 381.874L562.266 384.666ZM565.712 383.566L564.838 380.759L564.887 380.744L564.935 380.73L565.712 383.566ZM568.588 382.778L569.373 385.611L569.365 385.613L568.588 382.778ZM599.207 374.451L599.082 377.388H599.073L599.207 374.451ZM602.91 374.682L603.114 371.749L603.127 371.75L603.14 371.75L602.91 374.682ZM605.203 374.858L604.966 377.788H604.962L605.203 374.858ZM614.211 375.755L613.878 378.676L613.868 378.675L613.859 378.673L614.211 375.755ZM617.521 376.176L617.908 373.262L617.912 373.262L617.521 376.176ZM625.945 379.491L627.734 377.157L627.736 377.159L625.945 379.491ZM632.878 402.149L635.806 402.41L635.805 402.42L632.878 402.149ZM632.376 406.129L629.472 405.668L629.473 405.662L629.474 405.656L632.376 406.129ZM631.684 409.729L628.815 409.087L628.817 409.078L631.684 409.729ZM629.608 420.474L632.509 420.953V420.956L629.608 420.474ZM629.364 421.941L626.456 421.511L626.46 421.484L626.464 421.458L629.364 421.941ZM629.025 424.168L631.935 424.591L631.933 424.598L631.933 424.605L629.025 424.168ZM626.76 452.94L623.821 453.029L623.82 453.016V453.005L626.76 452.94ZM626.8 454.271L623.862 454.383V454.373L623.861 454.363L626.8 454.271ZM628.632 471.047L625.743 471.597L625.739 471.572L625.734 471.548L628.632 471.047ZM628.943 472.772L626.055 473.32L626.053 473.31L628.943 472.772ZM628.965 473.261L626.915 475.369L625.898 474.379L626.04 472.967L628.965 473.261ZM554.43 474.042H557.37V474.166L557.359 474.29L554.43 474.042ZM554.963 473.53L555.91 470.747L560.612 472.345L556.949 475.699L554.963 473.53ZM553.408 471.428L556.347 471.4L556.348 471.413V471.428H553.408ZM553.34 467.529L550.402 467.629L550.401 467.619V467.61L553.34 467.529ZM553.177 463.658L550.243 463.841L550.242 463.819L550.24 463.797L553.177 463.658ZM554.72 460.278C555.134 460.565 555.473 460.949 555.707 461.395C555.941 461.842 556.063 462.339 556.063 462.843H550.183C550.183 463.765 550.641 464.604 551.368 465.109L554.72 460.278ZM554.164 459.87C554.442 460.083 554.639 460.222 554.72 460.278L551.369 465.109C551.105 464.926 550.844 464.735 550.589 464.538L554.164 459.87ZM553.02 453.757C553.256 456.01 553.422 457.54 553.688 458.661C553.956 459.791 554.197 459.893 554.122 459.839L550.631 464.57C549.01 463.373 548.338 461.584 547.967 460.018C547.593 458.444 547.393 456.474 547.172 454.37L553.02 453.757ZM552.442 448.751C552.693 450.634 552.869 452.31 553.02 453.757L547.172 454.37C547.02 452.919 546.853 451.319 546.614 449.528L552.442 448.751ZM548.492 427.039C550.717 436.886 551.455 441.347 552.442 448.751L546.614 449.528C545.649 442.297 544.943 438.009 542.757 428.334L548.492 427.039ZM547.963 424.788C548.14 425.525 548.321 426.281 548.492 427.039L542.757 428.334C542.596 427.621 542.423 426.903 542.246 426.161L547.963 424.788ZM546.587 417.189C546.728 419.611 547.308 422.062 547.963 424.788L542.246 426.161C541.613 423.527 540.893 420.563 540.717 417.53L546.587 417.189ZM546.587 416.926C546.582 417 546.581 417.087 546.587 417.189L540.717 417.53C540.697 417.195 540.698 416.858 540.72 416.523L546.587 416.926ZM546.756 413.857C546.727 414.896 546.67 415.933 546.584 416.968L540.724 416.481C540.801 415.557 540.852 414.633 540.878 413.696L546.756 413.857ZM546.797 411.413C546.797 412.235 546.783 413.057 546.755 413.878L540.879 413.676C540.904 412.921 540.917 412.167 540.917 411.413H546.797ZM546.797 411.237V411.413H540.917V411.237H546.797ZM546.797 410.693V411.237H540.917V410.693H546.797ZM546.764 407.224C546.778 408.301 546.794 409.457 546.797 410.686L540.917 410.701C540.915 409.51 540.899 408.384 540.884 407.304L546.764 407.224ZM551.202 392.734C548.789 394.405 547.786 396.009 547.274 397.968C546.692 400.195 546.706 402.961 546.764 407.224L540.884 407.304C540.83 403.316 540.757 399.646 541.585 396.48C542.483 393.046 544.388 390.301 547.854 387.901L551.202 392.734ZM556.544 389.923C554.228 390.913 552.502 391.828 551.21 392.729L547.846 387.906C549.593 386.687 551.72 385.591 554.233 384.517L556.544 389.923ZM563.193 387.456C560.588 388.321 558.399 389.136 556.536 389.926L554.24 384.513C556.284 383.646 558.627 382.777 561.34 381.876L563.193 387.456ZM566.587 386.373C565.45 386.726 564.317 387.087 563.186 387.458L561.346 381.874C562.438 381.514 563.607 381.142 564.838 380.759L566.587 386.373ZM569.365 385.613L566.489 386.401L564.935 380.73L567.811 379.942L569.365 385.613ZM599.085 377.381L569.373 385.611L567.803 379.944L597.515 371.714L599.085 377.381ZM599.073 377.388C599.065 377.387 599.058 377.387 599.05 377.388C599.052 377.387 599.064 377.386 599.085 377.381L597.515 371.714C598.109 371.551 598.725 371.484 599.34 371.514L599.073 377.388ZM602.707 377.615C601.499 377.527 600.291 377.451 599.082 377.388L599.332 371.514C600.014 371.542 601.355 371.627 603.114 371.749L602.707 377.615ZM603.538 377.678L602.68 377.613L603.14 371.75C603.405 371.772 603.684 371.792 603.978 371.814L603.538 377.678ZM604.962 377.788C604.471 377.748 603.997 377.713 603.538 377.678L603.978 371.814C604.435 371.849 604.928 371.886 605.444 371.928L604.962 377.788ZM613.859 378.673C610.53 378.272 607.464 377.991 604.966 377.788L605.439 371.928C607.988 372.133 611.136 372.422 614.563 372.836L613.859 378.673ZM616.875 379.056C615.877 378.92 614.878 378.793 613.878 378.676L614.544 372.834C615.566 372.951 616.617 373.09 617.65 373.227L616.875 379.056ZM617.134 379.09L616.875 379.056L617.65 373.227L617.908 373.262L617.134 379.09ZM624.157 381.824C622.408 380.483 620.121 379.491 617.13 379.09L617.912 373.262C621.812 373.785 625.088 375.129 627.734 377.157L624.157 381.824ZM629.805 392.935C629.099 388.013 627.242 384.192 624.155 381.823L627.736 377.159C632.436 380.766 634.784 386.237 635.625 392.1L629.805 392.935ZM629.949 401.888C630.232 398.723 630.2 395.695 629.805 392.935L635.625 392.1C636.098 395.399 636.121 398.892 635.806 402.41L629.949 401.888ZM629.474 405.656C629.679 404.401 629.833 403.138 629.95 401.877L635.805 402.42C635.678 403.819 635.502 405.214 635.277 406.602L629.474 405.656ZM628.817 409.078C629.073 407.948 629.292 406.803 629.472 405.668L635.28 406.59C635.078 407.861 634.835 409.125 634.551 410.38L628.817 409.078ZM626.707 419.994C627.308 416.34 628.011 412.702 628.815 409.087L634.553 410.37C633.773 413.878 633.092 417.407 632.509 420.953L626.707 419.994ZM626.464 421.458L626.708 419.991L632.509 420.956L632.264 422.424L626.464 421.458ZM626.304 422.505C626.357 422.163 626.407 421.835 626.456 421.511L632.273 422.371C632.221 422.719 632.167 423.068 632.114 423.406L626.304 422.505ZM626.116 423.746C626.177 423.325 626.241 422.906 626.304 422.505L632.114 423.406C632.052 423.812 631.991 424.203 631.935 424.591L626.116 423.746ZM623.82 453.005C623.653 445.382 624.474 434.677 626.118 423.732L631.933 424.605C630.321 435.34 629.541 445.691 629.699 452.875L623.82 453.005ZM623.821 453.037V453.029L629.698 452.851V452.86L623.821 453.037ZM623.861 454.363L623.821 453.037L629.698 452.859L629.739 454.179L623.861 454.363ZM625.734 471.548C624.642 465.221 624.058 459.508 623.862 454.383L629.738 454.159C629.922 459.005 630.477 464.458 631.529 470.548L625.734 471.548ZM625.908 472.502C625.851 472.184 625.799 471.889 625.743 471.597L631.519 470.498C631.583 470.832 631.642 471.164 631.697 471.476L625.908 472.502ZM626.053 473.31C626.002 473.032 625.953 472.759 625.908 472.502L631.697 471.476C631.744 471.737 631.788 471.986 631.834 472.236L626.053 473.31ZM626.04 472.967C626.028 473.089 626.034 473.208 626.055 473.32L631.833 472.226C631.916 472.67 631.935 473.118 631.891 473.555L626.04 472.967ZM631.015 471.154C632.849 472.938 634.417 475.171 635.008 477.738C635.627 480.43 635.105 483.232 633.189 485.767L628.499 482.222C629.378 481.058 629.503 480.035 629.278 479.057C629.023 477.954 628.254 476.67 626.915 475.369L631.015 471.154ZM633.189 485.767C632.018 487.317 630.206 488.249 628.707 488.798C627.135 489.372 625.429 489.697 624.004 489.752L623.778 483.876C624.57 483.846 625.672 483.646 626.688 483.275C627.777 482.877 628.332 482.441 628.499 482.222L633.189 485.767ZM624.004 489.752L570.844 491.799L570.619 485.924L623.778 483.876L624.004 489.752ZM570.844 491.799C566.42 491.969 561.769 491.102 558.084 488.887C554.296 486.61 551.526 482.873 551.383 477.698L557.261 477.535C557.34 480.394 558.76 482.433 561.113 483.847C563.571 485.325 567.012 486.063 570.619 485.924L570.844 491.799ZM551.383 477.698C551.349 476.481 551.383 475.18 551.501 473.794L557.359 474.29C557.266 475.369 557.233 476.453 557.261 477.535L551.383 477.698ZM551.49 474.042C551.49 473.531 551.623 473.029 551.876 472.586C551.951 472.454 552.02 472.357 552.046 472.321C552.106 472.238 552.157 472.177 552.172 472.159C552.211 472.112 552.244 472.076 552.253 472.066L552.308 472.007L552.369 471.943L552.51 471.804C552.622 471.694 552.779 471.545 552.978 471.362L556.949 475.699C556.794 475.84 556.684 475.946 556.618 476.011C556.584 476.043 556.565 476.063 556.558 476.07L556.569 476.059L556.611 476.012C556.754 475.855 556.879 475.682 556.985 475.498C557.021 475.433 557.09 475.306 557.158 475.137C557.189 475.057 557.251 474.869 557.281 474.761C557.314 474.613 557.362 474.253 557.37 474.042H551.49ZM556.348 471.428C556.348 471.248 556.281 471.075 556.186 470.95C556.116 470.857 556.02 470.786 555.91 470.747L554.017 476.314C552.109 475.665 550.468 473.857 550.468 471.428H556.348ZM556.278 467.429C556.32 468.667 556.334 470.007 556.347 471.4L550.468 471.456C550.461 470.18 550.439 468.904 550.402 467.629L556.278 467.429ZM556.111 463.475C556.182 464.606 556.238 465.947 556.279 467.448L550.401 467.61C550.361 466.151 550.308 464.883 550.243 463.841L556.111 463.475ZM556.047 462.535C556.084 462.89 556.101 463.244 556.114 463.518L550.24 463.797C550.232 463.581 550.219 463.365 550.199 463.15L556.047 462.535Z"
                fill="#E1E4E5" />
        </g>
        <path
            d="M598.092 375.903C598.092 375.903 595.432 385.969 585.379 388.763C572.6 392.305 570.675 388.014 570.675 388.014C570.996 386.183 571.103 384.392 571.023 382.493C570.99 381.756 570.932 381.02 570.848 380.287C570.621 378.229 570.193 375.983 569.592 373.417C569.458 372.815 569.298 372.187 569.138 371.545L569.124 371.465C577.867 368.177 584.724 363.244 588.922 355.945L590.165 354.97L591.007 354.301L591.248 354.809L591.288 356.506C591.461 364.487 592.812 369.206 598.092 375.903ZM601.655 391.828L582.453 462.627L589.3 454.676C586.767 456.038 583.831 457.073 580.583 457.82C577.335 458.553 573.788 458.985 570.099 459.169C566.396 459.365 562.538 459.326 558.589 459.169C554.639 458.999 550.612 458.71 546.519 458.357H546.493C540.452 457.833 535.139 462.352 534.619 468.443C534.126 474.245 538.218 479.393 543.831 480.311C548.052 480.992 552.353 481.634 556.757 482.144C561.16 482.655 565.682 483.048 570.359 483.153C575.036 483.258 579.882 483.074 584.883 482.341C589.885 481.607 595.068 480.297 600.135 478.097C603.382 476.682 605.682 473.997 606.735 470.879L606.982 470.146L630.002 400.499C632.588 392.666 628.404 384.217 620.635 381.597C612.879 378.991 604.487 383.208 601.889 391.042C601.811 391.29 601.72 391.592 601.655 391.828Z"
            fill="#F8AE9D" />
        <path fill-rule="evenodd" clip-rule="evenodd"
            d="M375.485 489.809V486.102C375.485 483.975 377.622 482.252 380.247 482.241H711.106C713.745 482.241 715.868 483.975 715.868 486.102V489.809C715.868 491.946 713.731 493.67 711.106 493.67H696.292C695.289 493.67 694.328 494.068 693.619 494.777C692.91 495.486 692.512 496.447 692.512 497.449C692.512 498.109 691.43 498.639 690.093 498.639H392.302C390.978 498.639 389.896 498.109 389.896 497.449C389.896 496.447 389.498 495.486 388.789 494.777C388.08 494.068 387.119 493.67 386.116 493.67H380.247C377.608 493.67 375.485 491.946 375.485 489.809Z"
            fill="white" />
        <path
            d="M380.247 482.241L380.241 480.771H380.247V482.241ZM376.956 486.102V489.809H374.016V486.102H376.956ZM380.253 483.711C378.127 483.72 376.956 485.064 376.956 486.102H374.016C374.016 482.888 377.117 480.783 380.241 480.771L380.253 483.711ZM711.106 483.711H380.247V480.771H711.106V483.711ZM714.398 486.102C714.398 485.057 713.233 483.711 711.106 483.711V480.771C714.258 480.771 717.338 482.894 717.338 486.102H714.398ZM714.398 489.809V486.102H717.338V489.809H714.398ZM711.106 492.2C713.225 492.2 714.398 490.859 714.398 489.809H717.338C717.338 493.032 714.238 495.14 711.106 495.14V492.2ZM696.292 492.2H711.106V495.14H696.292V492.2ZM690.094 497.169C690.587 497.169 690.961 497.068 691.156 496.972C691.253 496.924 691.25 496.906 691.208 496.955C691.156 497.015 691.042 497.186 691.042 497.449H693.982C693.982 498.647 693.039 499.322 692.452 499.611C691.772 499.945 690.936 500.109 690.094 500.109V497.169ZM392.302 497.169H690.094V500.109H392.302V497.169ZM391.366 497.449C391.366 497.186 391.253 497.016 391.201 496.956C391.159 496.906 391.157 496.925 391.253 496.973C391.447 497.069 391.817 497.169 392.302 497.169V500.109C391.464 500.109 390.631 499.944 389.953 499.61C389.368 499.321 388.426 498.646 388.426 497.449H391.366ZM380.247 492.2H386.117V495.14H380.247V492.2ZM376.956 489.809C376.956 490.862 378.118 492.2 380.247 492.2V495.14C377.098 495.14 374.016 493.03 374.016 489.809H376.956ZM388.426 497.449C388.426 497.146 388.366 496.846 388.25 496.566C388.134 496.285 387.964 496.031 387.75 495.816C387.535 495.602 387.281 495.432 387 495.316C386.72 495.2 386.42 495.14 386.117 495.14V492.2C386.806 492.2 387.489 492.336 388.126 492.599C388.763 492.863 389.341 493.25 389.829 493.737C390.316 494.225 390.703 494.804 390.967 495.44C391.23 496.077 391.366 496.76 391.366 497.449H388.426ZM696.292 495.14C695.989 495.14 695.688 495.2 695.408 495.316C695.128 495.432 694.873 495.602 694.659 495.816C694.444 496.031 694.274 496.285 694.158 496.566C694.042 496.846 693.982 497.146 693.982 497.449H691.042C691.042 496.057 691.595 494.722 692.58 493.738C693.564 492.753 694.9 492.2 696.292 492.2V495.14Z"
            fill="#E1E4E5" />
        <path
            d="M415.53 390.34L431.036 455.922L431.451 457.646L432.494 462.058C432.712 462.986 433.237 463.813 433.985 464.405C434.732 464.997 435.657 465.319 436.61 465.32H541.079C543.806 465.32 545.838 462.766 545.21 460.106L528.246 388.389C528.027 387.461 527.502 386.634 526.755 386.042C526.008 385.45 525.082 385.127 524.129 385.127H419.661C416.92 385.141 414.901 387.693 415.53 390.34Z"
            fill="#8C34B1" />
        <path
            d="M466.287 428.037C466.781 432.555 470.844 436.205 475.363 436.205C479.881 436.205 483.13 432.542 482.635 428.037C482.141 423.519 478.077 419.87 473.558 419.87C469.04 419.87 465.792 423.519 466.287 428.037Z"
            fill="white" />
        <path
            d="M519.972 385.139L538.032 465.331H541.079C543.806 465.331 545.825 462.779 545.196 460.118L528.233 388.4C528.014 387.473 527.489 386.646 526.741 386.054C525.994 385.462 525.069 385.14 524.116 385.139H519.972ZM489.786 464.682L492.651 480.713H483.184L480.319 464.682H489.786Z"
            fill="#402A49" />
        <path
            d="M505.812 479.266L503.673 476.259C503.294 475.729 502.795 475.298 502.216 475C501.637 474.703 500.995 474.548 500.344 474.548H471.644C470.899 474.546 470.168 474.749 469.531 475.136C468.894 475.523 468.377 476.078 468.035 476.74L466.591 479.507C465.909 480.804 466.858 482.341 468.315 482.341H504.221C505.799 482.341 506.721 480.55 505.812 479.266Z"
            fill="#402A49" />
        <path fill-rule="evenodd" clip-rule="evenodd"
            d="M581.8 355.75V367.419L590.333 360.519C590.333 360.519 592.955 349.338 595.088 341.034C596.426 335.827 599.685 318.203 586.565 319.029C575.818 300.001 544.519 311.777 544.27 335.023C550.261 368.795 545.188 379.52 545.188 379.52C562.887 380.54 571.875 372.318 581.8 355.75Z"
            fill="#402A49" />
        <path fill-rule="evenodd" clip-rule="evenodd"
            d="M569.396 351.32L570.855 361.496L562.552 356.545C562.552 356.545 558.868 347.123 555.97 340.148C554.153 335.774 549.109 320.814 560.653 319.895C567.647 301.96 596.411 308.318 599.534 328.558C598.529 358.755 604.292 367.474 604.292 367.474C588.986 370.575 580.121 364.528 569.396 351.32Z"
            fill="#402A49" />
        <path
            d="M564.592 373.865C564.592 373.865 593.521 371.048 591.488 353.058C589.455 335.068 591.816 322.589 573.262 323.629C554.708 324.669 551.895 331.936 551.116 338.105C550.336 344.275 557.018 374.134 564.592 373.865Z"
            fill="#F8AE9D" />
        <path fill-rule="evenodd" clip-rule="evenodd"
            d="M590.471 343.032C586.806 343.626 587.25 346.011 586.254 345.802C581.192 344.745 560.704 346.139 558.066 335.07C554.784 341.986 553.982 343.686 546.754 345.542V325.278L592.469 320.969C592.469 320.969 591.759 342.822 590.471 343.032Z"
            fill="#402A49" />
        <path
            d="M763.836 346.014L751.511 358.327L745.523 352.357M376.29 282.757L363.965 295.071L357.977 289.1M396.308 397.259L383.983 409.573L377.995 403.602M651.736 346.814L639.411 359.127L633.423 353.158M349.866 440.498L337.541 452.811L331.553 446.841M385.098 220.301L372.773 232.615L366.785 226.644M647.733 213.095L635.407 225.408L629.419 219.439"
            stroke="#E1E4E5" stroke-width="4" stroke-linecap="round" stroke-linejoin="round" />
    </g>
    <path
        d="M384.12 552.408H367.32V542.52C367.32 541.112 366.52 540.408 364.92 540.408H361.56C359.96 540.408 359.16 541.112 359.16 542.52V577.848C359.16 579.256 359.96 579.96 361.56 579.96H364.92C366.52 579.96 367.32 579.256 367.32 577.848V568.344H384.12V579.096C384.12 587.032 379.416 591 370.008 591H356.472C347.064 591 342.36 587.032 342.36 579.096V541.272C342.36 533.336 347.064 529.368 356.472 529.368H370.008C379.416 529.368 384.12 533.336 384.12 541.272V552.408ZM412.835 543.096H429.155V591H413.123V584.856C412.227 588.952 409.315 591 404.387 591H402.659C394.147 591 389.891 587.032 389.891 579.096V543.096H406.211V576.888C406.211 578.296 407.011 579 408.611 579H410.243C411.971 579 412.835 578.04 412.835 576.12V543.096ZM457.511 578.328V574.488C457.511 573.08 456.711 572.376 455.111 572.376H449.255C440.039 572.376 435.431 568.44 435.431 560.568V555C435.431 547.064 440.135 543.096 449.543 543.096H458.471C467.879 543.096 472.583 547.064 472.583 555V559.032H457.031V555.768C457.031 554.36 456.231 553.656 454.631 553.656H453.671C452.071 553.656 451.271 554.36 451.271 555.768V559.992C451.271 561.4 452.071 562.104 453.671 562.104H459.527C464.455 562.104 467.975 563.128 470.087 565.176C472.263 567.16 473.351 570.04 473.351 573.816V579.096C473.351 587.032 468.647 591 459.239 591H449.831C440.423 591 435.719 587.032 435.719 579.096V575.16H451.559V578.328C451.559 579.736 452.359 580.44 453.959 580.44H455.111C456.711 580.44 457.511 579.736 457.511 578.328ZM503.909 555.096H497.861V576.888C497.861 578.296 498.661 579 500.261 579H503.813V591H495.653C486.245 591 481.541 587.032 481.541 579.096V555.096H476.261V543.096H481.541V533.688H497.861V543.096H503.909V555.096ZM521.836 543.096H534.028C538.892 543.096 542.38 544.12 544.492 546.168C546.604 548.216 547.66 551.16 547.66 555V579.096C547.66 582.936 546.604 585.88 544.492 587.928C542.38 589.976 538.892 591 534.028 591H521.836C516.972 591 513.484 589.976 511.372 587.928C509.26 585.88 508.204 582.936 508.204 579.096V555C508.204 551.16 509.26 548.216 511.372 546.168C513.484 544.12 516.972 543.096 521.836 543.096ZM531.628 577.56V556.536C531.628 555.128 530.828 554.424 529.228 554.424H526.636C525.036 554.424 524.236 555.128 524.236 556.536V577.56C524.236 578.968 525.036 579.672 526.636 579.672H529.228C530.828 579.672 531.628 578.968 531.628 577.56ZM602.615 543.096H604.343C612.855 543.096 617.111 547.064 617.111 555V591H600.791V557.208C600.791 555.8 599.991 555.096 598.391 555.096H596.759C595.031 555.096 594.167 556.056 594.167 557.976V591H577.847V557.208C577.847 555.8 577.047 555.096 575.447 555.096H573.815C572.087 555.096 571.223 556.056 571.223 557.976V591H554.903V543.096H570.935V549.24C571.831 545.144 574.743 543.096 579.671 543.096H581.399C587.351 543.096 591.255 545.112 593.111 549.144C593.623 547.288 594.743 545.816 596.471 544.728C598.199 543.64 600.247 543.096 602.615 543.096ZM637.43 543.096H649.142C658.55 543.096 663.254 547.064 663.254 555V571.32H638.774V577.656C638.774 579.064 639.574 579.768 641.174 579.768H645.398C646.998 579.768 647.798 579 647.798 577.464V574.776H663.254V579.096C663.254 587.032 658.55 591 649.142 591H637.43C628.022 591 623.318 587.032 623.318 579.096V555C623.318 547.064 628.022 543.096 637.43 543.096ZM638.774 562.488H647.798V556.44C647.798 555.032 646.998 554.328 645.398 554.328H641.174C639.574 554.328 638.774 555.032 638.774 556.44V562.488ZM695.865 542.616H697.305V556.824H691.833C687.801 556.824 685.785 559 685.785 563.352V591H669.465V543.096H685.497V550.488C686.009 548.056 687.161 546.136 688.953 544.728C690.745 543.32 693.049 542.616 695.865 542.616ZM722.261 578.328V574.488C722.261 573.08 721.461 572.376 719.861 572.376H714.005C704.789 572.376 700.181 568.44 700.181 560.568V555C700.181 547.064 704.885 543.096 714.293 543.096H723.221C732.629 543.096 737.333 547.064 737.333 555V559.032H721.781V555.768C721.781 554.36 720.981 553.656 719.381 553.656H718.421C716.821 553.656 716.021 554.36 716.021 555.768V559.992C716.021 561.4 716.821 562.104 718.421 562.104H724.277C729.205 562.104 732.725 563.128 734.837 565.176C737.013 567.16 738.101 570.04 738.101 573.816V579.096C738.101 587.032 733.397 591 723.989 591H714.581C705.173 591 700.469 587.032 700.469 579.096V575.16H716.309V578.328C716.309 579.736 717.109 580.44 718.709 580.44H719.861C721.461 580.44 722.261 579.736 722.261 578.328Z"
        fill="#232323" />
    <path fill-rule="evenodd" clip-rule="evenodd"
        d="M228.647 50.0146C228.679 50.1326 228.696 50.2542 228.696 50.3764V69.3664C228.696 69.6101 228.631 69.8495 228.508 70.0604C228.385 70.2713 228.207 70.4463 227.994 70.5675L211.915 79.7441V97.9327C211.915 98.4277 211.65 98.8846 211.217 99.1339L177.653 118.287C177.576 118.33 177.493 118.358 177.409 118.387C177.377 118.397 177.348 118.416 177.315 118.425C177.08 118.486 176.833 118.486 176.599 118.425C176.56 118.415 176.525 118.394 176.489 118.38C176.412 118.352 176.332 118.328 176.258 118.287L142.702 99.1339C142.489 99.0125 142.312 98.8375 142.188 98.6266C142.065 98.4158 142 98.1764 142 97.9327V40.9627C142 40.8381 142.017 40.7169 142.049 40.5993C142.059 40.5594 142.084 40.5231 142.098 40.4833C142.124 40.4106 142.148 40.3362 142.187 40.2687C142.213 40.2237 142.251 40.1873 142.283 40.1458C142.323 40.0904 142.36 40.0333 142.407 39.9848C142.447 39.945 142.499 39.9156 142.545 39.881C142.595 39.8394 142.641 39.7944 142.698 39.7616H142.7L159.479 30.1852C159.692 30.064 159.932 30.0002 160.178 30.0002C160.423 30.0002 160.664 30.064 160.876 30.1852L177.655 39.7616H177.659C177.714 39.7962 177.762 39.8394 177.812 39.8793C177.858 39.9139 177.908 39.945 177.948 39.9831C177.997 40.0333 178.032 40.0904 178.074 40.1458C178.104 40.1873 178.144 40.2237 178.168 40.2687C178.209 40.3379 178.231 40.4106 178.259 40.4833C178.273 40.5231 178.298 40.5594 178.308 40.601C178.34 40.7189 178.357 40.8405 178.357 40.9627V76.5456L192.339 68.565V50.3746C192.339 50.2535 192.356 50.1306 192.388 50.0146C192.4 49.9731 192.423 49.9368 192.437 49.8969C192.465 49.8243 192.489 49.7498 192.527 49.6823C192.554 49.6373 192.592 49.601 192.622 49.5594C192.664 49.5041 192.699 49.4469 192.747 49.3985C192.788 49.3587 192.838 49.3293 192.884 49.2946C192.936 49.2531 192.981 49.2081 193.037 49.1752H193.039L209.82 39.5989C210.032 39.4775 210.273 39.4136 210.518 39.4136C210.763 39.4136 211.004 39.4775 211.217 39.5989L227.996 49.1752C228.055 49.2098 228.1 49.2531 228.153 49.2929C228.197 49.3275 228.247 49.3587 228.287 49.3968C228.336 49.4469 228.371 49.5041 228.413 49.5594C228.444 49.601 228.483 49.6373 228.507 49.6823C228.547 49.7498 228.57 49.8243 228.598 49.8969C228.614 49.9368 228.637 49.9731 228.647 50.0146ZM225.899 68.565V52.7735L220.027 56.1243L211.915 60.7541V76.5456L225.901 68.565H225.899ZM209.12 97.1314V81.3294L201.141 85.8467L178.355 98.7375V114.688L209.12 97.1314ZM144.797 43.3598V97.1314L175.558 114.687V98.7393L159.488 89.7237L159.483 89.7202L159.476 89.7167C159.422 89.6856 159.376 89.6406 159.326 89.6025C159.282 89.5679 159.231 89.5402 159.193 89.5021L159.189 89.4969C159.144 89.4537 159.113 89.4 159.074 89.3516C159.039 89.3048 158.997 89.265 158.969 89.2166L158.968 89.2114C158.936 89.1594 158.917 89.0971 158.894 89.0383C158.872 88.9864 158.842 88.9379 158.828 88.8825V88.8808C158.81 88.815 158.807 88.7458 158.8 88.6783C158.793 88.6264 158.779 88.5744 158.779 88.5225V88.5191V51.3404L150.669 46.7089L144.797 43.3616V43.3598ZM160.179 32.9856L146.199 40.9627L160.176 48.9398L174.154 40.961L160.176 32.9856H160.179ZM167.45 82.7694L175.56 78.1414V43.3598L169.688 46.7106L161.576 51.3404V86.1219L167.45 82.7694ZM210.518 42.3993L196.54 50.3764L210.518 58.3535L224.495 50.3746L210.518 42.3993ZM209.12 60.7541L201.008 56.1243L195.136 52.7735V68.565L203.246 73.1931L209.12 76.5456V60.7541ZM176.955 96.3404L197.458 84.7373L207.707 78.9393L193.739 70.9673L177.657 80.1456L162.999 88.5104L176.955 96.3404Z"
        fill="#FF2D20" />
    <mask id="mask1_1017_2" style="mask-type:luminance" maskUnits="userSpaceOnUse" x="31" y="30"
        width="90" height="90">
        <path d="M121 30H31V120H121V30Z" fill="white" />
    </mask>
    <g mask="url(#mask1_1017_2)">
        <path
            d="M85.357 74.2268L99.7972 50.5586C99.9753 50.282 100.072 49.9608 100.076 49.6319C100.067 49.178 99.8785 48.7461 99.5519 48.4307C99.2253 48.1153 98.7871 47.942 98.3332 47.9486V47.9402C98.3332 47.9402 90.8386 50.5841 83.3437 50.5841C75.8488 50.5841 68.3545 47.9402 68.3545 47.9402V47.9486C67.9005 47.942 67.4624 48.1153 67.1358 48.4307C66.8092 48.7461 66.6207 49.178 66.6115 49.6319C66.6242 49.9699 66.7265 50.2985 66.9079 50.5841L81.331 74.2268C81.5812 74.515 81.8905 74.7462 82.2378 74.9046C82.5851 75.063 82.9624 75.1449 83.3441 75.1449C83.7259 75.1449 84.1031 75.063 84.4504 74.9046C84.7978 74.7462 85.1067 74.515 85.357 74.2268Z"
            fill="#8C34B1" />
        <mask id="mask2_1017_2" style="mask-type:luminance" maskUnits="userSpaceOnUse" x="31" y="30"
            width="90" height="90">
            <path d="M31 30H121V120H31V30Z" fill="white" />
        </mask>
        <g mask="url(#mask2_1017_2)">
            <path
                d="M113.895 60.2691C113.895 57.5976 111.824 55.4328 109.257 55.4328C108.15 55.4518 107.085 55.8623 106.252 56.5916C105.419 57.3208 104.871 58.3216 104.705 59.4165C104.705 59.4165 103.393 68.2932 101.01 77.6202C99.8449 82.1769 95.4397 83.6502 94.6249 83.6502H75.2035C69.7846 83.6502 67.8283 78.0606 67.6672 77.6724C67.6105 77.5161 61.8031 60.9846 59.3731 51.7191C55.8394 38.2236 41.7802 40.6158 41.7802 40.6158C40.7314 40.8382 39.7921 41.417 39.122 42.2539C38.4518 43.0907 38.0922 44.1338 38.1043 45.2058C38.093 45.8237 38.2044 46.4378 38.4319 47.0125C38.6595 47.5871 38.9987 48.1109 39.43 48.5537C39.8612 48.9964 40.376 49.3492 40.9445 49.5917C41.513 49.8342 42.124 49.9616 42.742 49.9665C43.1011 49.9514 43.4573 49.8942 43.8031 49.7961C44.869 49.5783 49.1509 49.0002 50.4583 53.7846C53.0824 63.3861 58.7335 80.292 58.9987 81.0213C60.5239 85.1424 65.6587 93.1239 75.2035 93.1239H94.6246C98.8594 93.1239 107.518 89.5806 109.967 80.0076C112.293 70.9254 113.895 60.5484 113.895 60.2691Z"
                fill="#8C34B1" />
            <path
                d="M80.3486 105.493C80.3491 106.928 79.924 108.331 79.1271 109.525C78.3302 110.718 77.1972 111.648 75.8715 112.198C74.5458 112.747 73.0869 112.891 71.6794 112.611C70.2719 112.331 68.979 111.64 67.9643 110.626C66.9495 109.611 66.2585 108.318 65.9787 106.911C65.6988 105.503 65.8426 104.044 66.392 102.719C66.9414 101.393 67.8716 100.26 69.065 99.4629C70.2584 98.6659 71.6613 98.2407 73.0964 98.2412C75.0197 98.2413 76.8642 99.0053 78.2242 100.365C79.5843 101.725 80.3484 103.57 80.3486 105.493Z"
                fill="#8C34B1" />
            <path
                d="M103.736 106.104C103.737 107.539 103.312 108.942 102.515 110.135C101.718 111.329 100.585 112.259 99.2592 112.808C97.9335 113.358 96.4746 113.502 95.0671 113.222C93.6596 112.942 92.3667 112.251 91.352 111.236C90.3372 110.222 89.6462 108.929 89.3664 107.521C89.0865 106.114 89.2303 104.655 89.7797 103.329C90.3291 102.003 91.2593 100.87 92.4527 100.073C93.6461 99.2765 95.049 98.8513 96.4841 98.8518C98.4074 98.8519 100.252 99.6159 101.612 100.976C102.972 102.336 103.736 104.18 103.736 106.104Z"
                fill="#8C34B1" />
        </g>
    </g>
    <path
        d="M281.936 43.2715C277.014 44.0801 273.533 46.207 270.967 50.0215C269.262 52.5176 268.348 55.1191 267.188 60.6562L266.432 64.1895L262.934 64.2422L259.418 64.2773L258.486 68.7246C257.977 71.1504 257.52 73.3301 257.467 73.541L257.379 73.9453L260.877 73.9805L264.393 74.0332L263.725 77.1973C262.547 82.752 257.59 106.623 257.59 106.729C257.59 106.781 260.42 106.816 263.9 106.816H270.211L270.299 106.324C271.951 98.4492 276.504 76.6172 276.732 75.5273L277.031 74.0332L282.832 73.9453L288.615 73.8574L289.512 69.6387C290.004 67.3184 290.443 65.1562 290.514 64.8398L290.637 64.2773H284.59H278.543L279.123 61.4648C280.02 57.1406 280.969 55.5059 283.219 54.3984C284.396 53.8184 284.396 53.8184 287.033 53.8184C289.635 53.8359 289.705 53.8359 291.586 54.4863C292.623 54.8555 293.502 55.1367 293.537 55.1016C293.555 55.0664 294.24 52.7812 295.066 50.0039L296.561 44.959L295.576 44.6074C292.799 43.6055 290.25 43.1836 286.506 43.0957C284.414 43.043 283.043 43.0957 281.936 43.2715Z"
        fill="black" />
    <path
        d="M308.25 43.535C305.314 44.0624 303.346 45.3632 302.273 47.5077C301.342 49.3358 301.043 52.3241 301.605 54.0292C302.01 55.2421 303.064 56.4022 304.312 57.0175C305.191 57.4393 305.56 57.5097 307.336 57.5624C312.644 57.7382 315.351 55.9628 316.389 51.6737C317.215 48.2811 315.967 45.1698 313.312 43.9921C312.099 43.4472 309.885 43.2538 308.25 43.535Z"
        fill="black" />
    <path
        d="M302.818 64.2598C301.342 64.3301 300.076 64.4531 299.988 64.541C299.725 64.8398 299.057 67.459 299.162 67.793C299.215 67.9687 300.27 68.8125 301.5 69.6562L303.732 71.2207L301.799 71.3613C298.371 71.6074 298.371 71.6074 298.072 72.3281C297.932 72.6621 297.791 73.418 297.791 73.998L297.756 75.0527L299.918 76.5644C301.553 77.707 301.992 78.0937 301.764 78.1816C301.588 78.2519 300.428 78.3574 299.197 78.4277C296.578 78.5684 296.596 78.5684 296.244 80.4844C296.068 81.4512 296.068 81.7148 296.262 81.9434C296.402 82.1016 297.439 82.875 298.6 83.666L300.691 85.1074L299.496 85.2129C298.828 85.2832 297.773 85.3359 297.141 85.3535C295.436 85.3887 295.172 85.582 294.803 87.0937C294.398 88.7461 294.416 88.7988 297.053 90.6094L299.092 92.0156L298.424 92.1211C298.055 92.1738 296.93 92.2617 295.91 92.332C294.68 92.4023 293.959 92.5254 293.783 92.7012C293.432 93 293.01 95.0391 293.168 95.6016C293.238 95.8652 294.082 96.5684 295.506 97.5527C297.721 99.082 297.721 99.082 297.035 99.0996C294.996 99.1172 292.518 99.416 292.271 99.6621C292.061 99.873 290.285 106.148 290.285 106.676C290.285 106.764 291.551 106.816 293.08 106.816H295.893L296.279 105.094C296.49 104.162 296.666 103.371 296.684 103.354C296.701 103.336 298.283 103.195 300.217 103.037C302.326 102.844 303.891 102.633 304.102 102.492C304.523 102.246 304.998 100.277 304.822 99.5566C304.752 99.3105 303.961 98.6426 302.59 97.6934C301.43 96.8848 300.498 96.1816 300.533 96.1465C300.568 96.1113 301.711 96.0059 303.047 95.9004C304.576 95.7949 305.578 95.6367 305.719 95.4961C306.018 95.1973 306.492 93.123 306.369 92.6309C306.316 92.4023 305.438 91.6641 304.049 90.6973L301.816 89.1504L304.4 88.9746C306.264 88.8516 307.037 88.7285 307.23 88.5352C307.582 88.1836 308.021 86.0742 307.846 85.5996C307.775 85.3887 306.756 84.5625 305.578 83.7539L303.434 82.2949L304.471 82.1719C305.033 82.1016 306.193 81.9961 307.037 81.9258C308.83 81.8027 308.936 81.7148 309.287 79.957C309.463 79.166 309.463 78.7617 309.34 78.5508C309.234 78.3926 308.18 77.584 306.984 76.7578C305.279 75.5625 304.928 75.2461 305.244 75.2285C305.473 75.1934 306.633 75.1055 307.828 75.0352C309.375 74.9297 310.061 74.8066 310.254 74.6133C310.395 74.4727 310.641 73.8223 310.799 73.1719C311.027 72.1523 311.027 71.959 310.799 71.6074C310.658 71.3965 309.27 70.3242 307.723 69.2344L304.893 67.2656L305.508 65.7363C305.842 64.875 306.105 64.1719 306.105 64.1543C306.105 64.1191 305.965 64.1191 305.807 64.1367C305.631 64.1543 304.277 64.207 302.818 64.2598Z"
        fill="black" />
    <defs>
        <linearGradient id="paint0_linear_1017_2" x1="427.847" y1="500.98" x2="426.243" y2="324.954"
            gradientUnits="userSpaceOnUse">
            <stop stop-color="white" />
            <stop offset="1" stop-color="#EEEEEE" />
        </linearGradient>
        <linearGradient id="paint1_linear_1017_2" x1="563.097" y1="353.079" x2="562.378"
            y2="273.625" gradientUnits="userSpaceOnUse">
            <stop stop-color="white" />
            <stop offset="1" stop-color="#EEEEEE" />
        </linearGradient>
        <linearGradient id="paint2_linear_1017_2" x1="253.956" y1="453.244" x2="289.777"
            y2="405.521" gradientUnits="userSpaceOnUse">
            <stop stop-color="white" />
            <stop offset="1" stop-color="#EEEEEE" />
        </linearGradient>
        <clipPath id="clip0_1017_2">
            <rect width="661.5" height="441" fill="white" transform="translate(209 101)" />
        </clipPath>
    </defs>
</svg>
    